<mxfile host="app.diagrams.net" modified="2022-10-20T08:41:50.829Z" agent="5.0 (Windows NT 10.0; Win64; x64) AppleWebKit/537.36 (KHTML, like Gecko) Chrome/106.0.0.0 Safari/537.36" etag="1XI3_s5vKmhcSIAke9lm" version="20.4.0" type="github">
  <diagram id="fRACtXbfO7ULo-54q57D" name="Страница 1">
    <mxGraphModel dx="1497" dy="880" grid="1" gridSize="10" guides="1" tooltips="1" connect="1" arrows="1" fold="1" page="1" pageScale="1" pageWidth="2339" pageHeight="3300" math="0" shadow="0">
      <root>
        <mxCell id="0" />
        <mxCell id="1" parent="0" />
        <mxCell id="wZcI6epZdg_Jq3GggXZ2-1" value="" style="ellipse;html=1;shape=startState;fillColor=#000000;strokeColor=#ff0000;fontSize=6;" vertex="1" parent="1">
          <mxGeometry x="175" y="340" width="30" height="30" as="geometry" />
        </mxCell>
        <mxCell id="wZcI6epZdg_Jq3GggXZ2-2" value="" style="edgeStyle=orthogonalEdgeStyle;html=1;verticalAlign=bottom;endArrow=open;endSize=8;strokeColor=#ff0000;rounded=0;fontSize=6;exitX=0.5;exitY=1;exitDx=0;exitDy=0;" edge="1" parent="1" source="wZcI6epZdg_Jq3GggXZ2-1">
          <mxGeometry relative="1" as="geometry">
            <mxPoint x="190" y="450" as="targetPoint" />
            <mxPoint x="190" y="380" as="sourcePoint" />
          </mxGeometry>
        </mxCell>
        <mxCell id="wZcI6epZdg_Jq3GggXZ2-3" value="&lt;font style=&quot;font-size: 12px;&quot;&gt;Notification is created&lt;br&gt;&lt;/font&gt;" style="rounded=1;whiteSpace=wrap;html=1;arcSize=40;fontColor=#000000;fillColor=#ffffc0;strokeColor=#ff0000;fontSize=6;" vertex="1" parent="1">
          <mxGeometry x="130" y="450" width="120" height="40" as="geometry" />
        </mxCell>
        <mxCell id="wZcI6epZdg_Jq3GggXZ2-4" value="" style="edgeStyle=orthogonalEdgeStyle;html=1;verticalAlign=bottom;endArrow=open;endSize=8;strokeColor=#ff0000;rounded=0;fontSize=6;entryX=0.5;entryY=0;entryDx=0;entryDy=0;exitX=0.5;exitY=1;exitDx=0;exitDy=0;" edge="1" parent="1" source="wZcI6epZdg_Jq3GggXZ2-3" target="wZcI6epZdg_Jq3GggXZ2-5">
          <mxGeometry relative="1" as="geometry">
            <mxPoint x="190" y="550" as="targetPoint" />
            <mxPoint x="190" y="500" as="sourcePoint" />
          </mxGeometry>
        </mxCell>
        <mxCell id="wZcI6epZdg_Jq3GggXZ2-5" value="&lt;font style=&quot;font-size: 12px;&quot;&gt;variants is added&lt;/font&gt;" style="rounded=1;whiteSpace=wrap;html=1;arcSize=40;fontColor=#000000;fillColor=#ffffc0;strokeColor=#ff0000;fontSize=6;" vertex="1" parent="1">
          <mxGeometry x="130" y="560" width="120" height="40" as="geometry" />
        </mxCell>
        <mxCell id="wZcI6epZdg_Jq3GggXZ2-6" value="" style="edgeStyle=orthogonalEdgeStyle;html=1;verticalAlign=bottom;endArrow=open;endSize=8;strokeColor=#ff0000;rounded=0;fontSize=6;entryX=0.5;entryY=0;entryDx=0;entryDy=0;exitX=0.5;exitY=1;exitDx=0;exitDy=0;" edge="1" parent="1" source="wZcI6epZdg_Jq3GggXZ2-5" target="wZcI6epZdg_Jq3GggXZ2-7">
          <mxGeometry relative="1" as="geometry">
            <mxPoint x="190" y="660" as="targetPoint" />
            <mxPoint x="190" y="610" as="sourcePoint" />
          </mxGeometry>
        </mxCell>
        <mxCell id="wZcI6epZdg_Jq3GggXZ2-7" value="&lt;font style=&quot;font-size: 12px;&quot;&gt;notifiction is sent&lt;/font&gt;" style="rounded=1;whiteSpace=wrap;html=1;arcSize=40;fontColor=#000000;fillColor=#ffffc0;strokeColor=#ff0000;fontSize=6;" vertex="1" parent="1">
          <mxGeometry x="130" y="670" width="120" height="40" as="geometry" />
        </mxCell>
        <mxCell id="wZcI6epZdg_Jq3GggXZ2-9" value="" style="ellipse;html=1;shape=endState;fillColor=#000000;strokeColor=#ff0000;fontSize=6;" vertex="1" parent="1">
          <mxGeometry x="175" y="1090" width="30" height="30" as="geometry" />
        </mxCell>
        <mxCell id="wZcI6epZdg_Jq3GggXZ2-10" value="Create notification" style="text;html=1;strokeColor=none;fillColor=none;align=center;verticalAlign=middle;whiteSpace=wrap;rounded=0;" vertex="1" parent="1">
          <mxGeometry x="200" y="390" width="80" height="20" as="geometry" />
        </mxCell>
        <mxCell id="wZcI6epZdg_Jq3GggXZ2-11" value="add variants" style="text;html=1;strokeColor=none;fillColor=none;align=center;verticalAlign=middle;whiteSpace=wrap;rounded=0;" vertex="1" parent="1">
          <mxGeometry x="205" y="520" width="85" height="20" as="geometry" />
        </mxCell>
        <mxCell id="wZcI6epZdg_Jq3GggXZ2-12" value="send notification to group" style="text;html=1;strokeColor=none;fillColor=none;align=center;verticalAlign=middle;whiteSpace=wrap;rounded=0;" vertex="1" parent="1">
          <mxGeometry x="205" y="630" width="95" height="20" as="geometry" />
        </mxCell>
        <mxCell id="wZcI6epZdg_Jq3GggXZ2-13" value="&lt;font style=&quot;font-size: 10px;&quot;&gt;vote in notification&lt;/font&gt;" style="shape=umlFrame;whiteSpace=wrap;html=1;fontSize=12;" vertex="1" parent="1">
          <mxGeometry x="50" y="330" width="350" height="810" as="geometry" />
        </mxCell>
        <mxCell id="wZcI6epZdg_Jq3GggXZ2-14" value="&lt;font style=&quot;font-size: 12px;&quot;&gt;notifiction is recived&lt;/font&gt;" style="rounded=1;whiteSpace=wrap;html=1;arcSize=40;fontColor=#000000;fillColor=#ffffc0;strokeColor=#ff0000;fontSize=6;direction=east;" vertex="1" parent="1">
          <mxGeometry x="130" y="770" width="120" height="40" as="geometry" />
        </mxCell>
        <mxCell id="wZcI6epZdg_Jq3GggXZ2-15" value="&lt;font style=&quot;font-size: 12px;&quot;&gt;selected variant in notidication&lt;/font&gt;" style="rounded=1;whiteSpace=wrap;html=1;arcSize=40;fontColor=#000000;fillColor=#ffffc0;strokeColor=#ff0000;fontSize=6;" vertex="1" parent="1">
          <mxGeometry x="130" y="870" width="120" height="40" as="geometry" />
        </mxCell>
        <mxCell id="wZcI6epZdg_Jq3GggXZ2-16" value="" style="edgeStyle=orthogonalEdgeStyle;html=1;verticalAlign=bottom;endArrow=open;endSize=8;strokeColor=#ff0000;rounded=0;fontSize=6;entryX=0.5;entryY=0;entryDx=0;entryDy=0;exitX=0.497;exitY=1;exitDx=0;exitDy=0;exitPerimeter=0;" edge="1" parent="1" source="wZcI6epZdg_Jq3GggXZ2-7" target="wZcI6epZdg_Jq3GggXZ2-14">
          <mxGeometry relative="1" as="geometry">
            <mxPoint x="189.67" y="790" as="targetPoint" />
            <mxPoint x="189.67" y="720" as="sourcePoint" />
          </mxGeometry>
        </mxCell>
        <mxCell id="wZcI6epZdg_Jq3GggXZ2-17" value="get notification" style="text;html=1;strokeColor=none;fillColor=none;align=center;verticalAlign=middle;whiteSpace=wrap;rounded=0;" vertex="1" parent="1">
          <mxGeometry x="215" y="730" width="95" height="20" as="geometry" />
        </mxCell>
        <mxCell id="wZcI6epZdg_Jq3GggXZ2-18" value="vote in notification" style="text;html=1;strokeColor=none;fillColor=none;align=center;verticalAlign=middle;whiteSpace=wrap;rounded=0;" vertex="1" parent="1">
          <mxGeometry x="230" y="820" width="95" height="20" as="geometry" />
        </mxCell>
        <mxCell id="wZcI6epZdg_Jq3GggXZ2-19" value="" style="edgeStyle=orthogonalEdgeStyle;html=1;verticalAlign=bottom;endArrow=open;endSize=8;strokeColor=#ff0000;rounded=0;fontSize=6;entryX=0.5;entryY=0;entryDx=0;entryDy=0;exitX=0.5;exitY=1;exitDx=0;exitDy=0;" edge="1" parent="1" source="wZcI6epZdg_Jq3GggXZ2-14" target="wZcI6epZdg_Jq3GggXZ2-15">
          <mxGeometry relative="1" as="geometry">
            <mxPoint x="185.38" y="880" as="targetPoint" />
            <mxPoint x="185.0200000000001" y="820" as="sourcePoint" />
          </mxGeometry>
        </mxCell>
        <mxCell id="wZcI6epZdg_Jq3GggXZ2-21" value="" style="edgeStyle=orthogonalEdgeStyle;html=1;verticalAlign=bottom;endArrow=open;endSize=8;strokeColor=#ff0000;rounded=0;fontSize=6;entryX=0.5;entryY=0;entryDx=0;entryDy=0;exitX=0.5;exitY=1;exitDx=0;exitDy=0;" edge="1" parent="1" target="wZcI6epZdg_Jq3GggXZ2-22">
          <mxGeometry relative="1" as="geometry">
            <mxPoint x="189.67" y="970" as="targetPoint" />
            <mxPoint x="189.67" y="910" as="sourcePoint" />
          </mxGeometry>
        </mxCell>
        <mxCell id="wZcI6epZdg_Jq3GggXZ2-22" value="&lt;font style=&quot;font-size: 12px;&quot;&gt;vote is sent&lt;/font&gt;" style="rounded=1;whiteSpace=wrap;html=1;arcSize=40;fontColor=#000000;fillColor=#ffffc0;strokeColor=#ff0000;fontSize=6;" vertex="1" parent="1">
          <mxGeometry x="130" y="980" width="120" height="40" as="geometry" />
        </mxCell>
        <mxCell id="wZcI6epZdg_Jq3GggXZ2-24" value="send vote" style="text;html=1;strokeColor=none;fillColor=none;align=center;verticalAlign=middle;whiteSpace=wrap;rounded=0;" vertex="1" parent="1">
          <mxGeometry x="215" y="930" width="95" height="20" as="geometry" />
        </mxCell>
        <mxCell id="wZcI6epZdg_Jq3GggXZ2-26" value="" style="edgeStyle=orthogonalEdgeStyle;html=1;verticalAlign=bottom;endArrow=open;endSize=8;strokeColor=#ff0000;rounded=0;fontSize=6;entryX=0.5;entryY=0;entryDx=0;entryDy=0;exitX=0.5;exitY=1;exitDx=0;exitDy=0;" edge="1" parent="1" source="wZcI6epZdg_Jq3GggXZ2-22" target="wZcI6epZdg_Jq3GggXZ2-9">
          <mxGeometry relative="1" as="geometry">
            <mxPoint x="189.85" y="1100" as="targetPoint" />
            <mxPoint x="189.85" y="1030" as="sourcePoint" />
          </mxGeometry>
        </mxCell>
      </root>
    </mxGraphModel>
  </diagram>
</mxfile>
